<?xml version="1.0" encoding="utf-8"?>
<!-- Generator: Adobe Illustrator 26.4.0, SVG Export Plug-In . SVG Version: 6.00 Build 0)  -->
<svg version="1.1" id="Layer_1" xmlns="http://www.w3.org/2000/svg" xmlns:xlink="http://www.w3.org/1999/xlink" x="0px" y="0px"
	 viewBox="0 0 1026.7 143.4" style="enable-background:new 0 0 1026.7 143.4;" xml:space="preserve">
<style type="text/css">
	.st0{fill:#69FFFF;}
	.st1{fill:#4AD1CD;}
</style>
<g>
	<g>
		<path class="st0" d="M154.6,3.9c-1.9-1.7-4.2-2.5-6.7-2.5s-4.8,0.8-6.9,2.5c-1.9,1.7-2.9,4-2.9,7.1c0,2.7,1,5,2.9,6.9
			s4.2,2.9,6.7,2.9c2.7,0,5-1,6.9-2.9s2.9-4.2,2.9-6.9C157.5,7.9,156.7,5.6,154.6,3.9z"/>
	</g>
	<g>
		<path class="st0" d="M148.1,41.4c-2.1,0-3.8,0.6-5,1.9c-1.3,1.3-1.9,2.9-1.9,5v83.4c0,2.1,0.6,3.8,1.9,5c1.3,1.3,2.9,1.9,5,1.9
			s3.6-0.6,4.8-1.9c1.3-1.3,1.9-2.9,1.9-5V48.3c0-2.1-0.6-3.8-1.9-5C151.7,42,150,41.4,148.1,41.4z"/>
	</g>
	<g>
		<path class="st0" d="M277.5,42c-1.7-0.6-3.4-0.8-5-0.2s-2.9,1.7-3.6,3.4l-33.7,73.7L201.1,45c-0.8-1.5-2.1-2.5-3.6-3.1
			s-3.1-0.4-4.8,0.4c-1.7,0.8-2.9,2.1-3.6,3.6c-0.6,1.5-0.6,3.1,0.2,4.6l39.4,83.8c1.5,3.1,3.6,4.6,6.5,4.6c3.1,0,5.2-1.5,6.7-4.6
			l38.9-83.8c0.6-1.5,0.8-2.9,0.2-4.6C280.4,44.1,279.2,42.9,277.5,42z"/>
	</g>
	<g>
		<path class="st0" d="M321.5,41.4c-2.1,0-3.8,0.6-5,1.9c-1.3,1.3-1.9,2.9-1.9,5v83.4c0,2.1,0.6,3.8,1.9,5c1.3,1.3,2.9,1.9,5,1.9
			s3.6-0.6,4.8-1.9c1.3-1.3,1.9-2.9,1.9-5V48.3c0-2.1-0.6-3.8-1.9-5C325.2,42,323.6,41.4,321.5,41.4z"/>
	</g>
	<g>
		<path class="st0" d="M328.2,3.9c-1.9-1.7-4.2-2.5-6.7-2.5s-4.8,0.8-6.9,2.5c-1.9,1.7-2.9,4-2.9,7.1c0,2.7,1,5,2.9,6.9
			s4.2,2.9,6.7,2.9c2.7,0,5-1,6.9-2.9s2.9-4.2,2.9-6.9C331.1,7.9,330.3,5.6,328.2,3.9z"/>
	</g>
	<g>
		<path class="st0" d="M429.3,89.5c-5.2-2.7-12.1-4.8-21.2-6.3c-6.5-1-11.5-2.3-15.3-4c-3.6-1.5-6.1-3.4-7.5-5.2
			c-1.5-2.1-2.3-4.4-2.3-7.1c0-4,1.9-7.3,5.9-10s9.2-4,15.7-4c5,0,9.6,0.8,13.4,2.3c4,1.7,7.3,4.2,10.3,7.5c1.3,1.5,2.9,2.3,4.6,2.5
			c1.9,0.2,3.6,0,4.8-0.8c1.7-1,2.5-2.5,2.9-4.2c0.2-1.7-0.2-3.4-1.5-4.8c-3.6-4.6-8.2-8.4-14-11.1c-5.7-2.7-12.6-4.2-20.5-4.2
			c-6.5,0-12.4,1-17.6,2.9c-5.2,2.1-9.6,5-12.8,9c-3.1,4-4.8,9-4.8,15.1c0,6.5,2.7,12.1,8.4,17c5.7,4.8,14.2,8,26.4,10
			c9.2,1.5,15.9,3.8,19.9,6.5s6.1,6.3,6.1,10.5c-0.2,4.2-2.1,8-6.1,10.9s-10.3,4.6-19.1,4.6c-5.7,0-10.9-0.8-15.5-2.7
			c-4.6-1.7-8.4-4.4-11.3-7.5c-1.3-1.3-2.7-2.1-4.4-2.3c-1.7-0.2-3.6,0.2-5.2,1.5c-1.5,1.3-2.5,2.9-2.7,4.6
			c-0.2,1.7,0.2,3.4,1.7,4.8c4.2,4.8,9.9,8.4,16.8,10.7s13.8,3.6,20.7,3.6c7.5,0,14-1.3,19.9-3.6c5.7-2.3,10.3-5.7,13.4-9.9
			c3.4-4.2,4.8-9,4.8-14.7c0-4.4-1-8.4-3.4-12.1C438.1,95.6,434.6,92.4,429.3,89.5z"/>
	</g>
	<g>
		<path class="st0" d="M497.1,3.9c-1.9-1.7-4.2-2.5-6.7-2.5s-4.8,0.8-6.9,2.5c-1.9,1.7-2.9,4-2.9,7.1c0,2.7,1,5,2.9,6.9
			s4.2,2.9,6.7,2.9c2.7,0,5-1,6.9-2.9s2.9-4.2,2.9-6.9C500.1,7.9,499,5.6,497.1,3.9z"/>
	</g>
	<g>
		<path class="st0" d="M490.5,41.4c-2.1,0-3.8,0.6-5,1.9c-1.3,1.3-1.9,2.9-1.9,5v83.4c0,2.1,0.6,3.8,1.9,5c1.3,1.3,2.9,1.9,5,1.9
			s3.6-0.6,4.8-1.9c1.3-1.3,1.9-2.9,1.9-5V48.3c0-2.1-0.6-3.8-1.9-5C494,42,492.3,41.4,490.5,41.4z"/>
	</g>
	<g>
		<path class="st0" d="M609.8,47c-7.3-4.2-15.9-6.5-25.3-6.5c-9.4,0-18,2.1-25.3,6.5c-7.5,4.2-13.4,10-17.6,17.6
			c-4.2,7.5-6.5,15.9-6.5,25.5c0,9.4,2.1,18,6.5,25.3c4.2,7.5,10,13.4,17.6,17.6c7.5,4.2,15.9,6.5,25.3,6.5c9.4,0,18-2.1,25.3-6.5
			c7.3-4.2,13.2-10,17.6-17.6c4.4-7.5,6.5-15.9,6.5-25.3c-0.2-9.6-2.3-18.2-6.5-25.5C623,57.1,617.1,51.2,609.8,47z M615.7,109
			c-3.1,5.7-7.3,10-12.8,13.2c-5.4,3.1-11.5,4.8-18.4,4.8s-13-1.7-18.4-4.8s-9.9-7.5-13-13.2s-4.6-11.9-4.6-19.1
			c0-7.1,1.5-13.4,4.6-19.1c3.1-5.7,7.3-10,13-13.2c5.5-3.1,11.5-4.8,18.4-4.8s13,1.7,18.4,4.8c5.5,3.1,9.6,7.5,12.8,13.2
			c3.1,5.7,4.6,11.9,4.6,19.1C620.3,97.4,618.8,103.6,615.7,109z"/>
	</g>
	<g>
		<path class="st0" d="M737.5,45.6c-6.7-3.6-14.2-5.2-22.6-5.2c-7.8,0-14.7,1.7-20.9,5c-4.4,2.3-8.2,5.4-11.3,9v-6.1
			c0-2.1-0.6-3.8-1.9-5c-1.3-1.3-2.9-1.9-4.8-1.9c-2.1,0-3.8,0.6-5,1.9c-1.3,1.3-1.9,2.9-1.9,5v83.5c0,2.1,0.6,3.6,1.9,4.8
			c1.3,1.3,2.9,1.9,5,1.9s3.6-0.6,4.8-1.9c1.3-1.3,1.9-2.9,1.9-4.8V79.2c0-5,1.3-9.4,4.2-13.4c2.7-4,6.5-6.9,11.1-9.2
			s9.9-3.4,15.7-3.4c6.1,0,11.5,1.3,16.3,3.6s8.6,5.9,11.3,10.7s4.2,10.7,4.2,18.2V132c0,1.9,0.6,3.6,1.9,4.8c1.3,1.3,2.9,1.9,5,1.9
			c1.9,0,3.6-0.6,4.8-1.9c1.3-1.3,1.9-2.9,1.9-4.8V85.7c0-9.6-1.9-18-5.9-24.7C749.5,54.2,744.2,49.1,737.5,45.6z"/>
	</g>
	<g>
		<path class="st0" d="M88.4,1.2c-4.2,0-7.3,3.4-7.3,7.3V95c0,17.8-14.4,32.5-32.5,32.5c-18,0-32.4-14.4-32.4-32.5
			c0-18,14.4-32.5,32.5-32.5c4.2,0,7.3-3.4,7.3-7.3c0-4.2-3.4-7.3-7.3-7.3c-26,0-47.1,21.2-47.1,47.1c0,26,21.2,47.1,47.1,47.1
			c26,0,47.1-21.2,47.1-47.1V8.5C95.7,4.5,92.4,1.2,88.4,1.2z"/>
	</g>
</g>
<path class="st1" d="M891.9,70.7c9.6-6.8,15.8-18,15.8-30.7c0-20.7-16.9-37.5-37.7-37.5h-45.5c-3.9,0-7,3.1-7,7s3.1,7,7,7H870
	c12.8,0,23.7,10.7,23.7,23.5c0,13.1-10.6,23.7-23.7,23.7h-39.9c-3.9,0-7,3.1-7,7s3.1,7,7,7H870c12.8,0,23.7,10.7,23.7,23.5
	c0,13.1-10.6,23.7-23.7,23.7h-45.5c-3.9,0-7,3.1-7,7c0,3.9,3.1,7,7,7H870c20.8,0,37.7-16.9,37.7-37.7
	C907.7,88.6,901.5,77.5,891.9,70.7z"/>
<g>
	<g>
		<path class="st1" d="M958.3,138.8h-23.5c-3.9,0-7-3.1-7-7c0-3.9,3.1-7,7-7h23.5c30,0,54.4-24.4,54.4-54.4
			c0-29.2-24.9-53.9-54.4-53.9h-23.5c-3.9,0-7-3.1-7-7s3.1-7,7-7h23.5c18.1,0,35.3,7.1,48.3,20c13,12.9,20.1,29.9,20.1,47.9
			C1026.7,108.1,996,138.8,958.3,138.8z"/>
	</g>
	<g>
		<path class="st1" d="M927.4,76.6c0,4.2,3.4,7.3,7.3,7.3c3.9,0,7.3-3.4,7.3-7.3V62.4c0-4.2-3.4-7.3-7.3-7.3c-3.9,0-7.3,3.4-7.3,7.3
			V76.6z"/>
	</g>
</g>
</svg>
